<svg width="300" height="300" viewBox="0 0 300 300" fill="none" xmlns="http://www.w3.org/2000/svg">
<g clip-path="url(#clip0)">
<path d="M85.095 0C87.8798 0 90.5505 1.10625 92.5196 3.07538C94.4888 5.04451 95.595 7.71523 95.595 10.5V30.135H208.35V10.635C208.35 7.85023 209.456 5.17951 211.425 3.21038C213.395 1.24125 216.065 0.135 218.85 0.135C221.635 0.135 224.305 1.24125 226.275 3.21038C228.244 5.17951 229.35 7.85023 229.35 10.635V30.135H270C277.954 30.135 285.582 33.2936 291.208 38.9165C296.834 44.5393 299.996 52.1661 300 60.12V270.015C299.996 277.969 296.834 285.596 291.208 291.219C285.582 296.841 277.954 300 270 300H30C22.0461 300 14.4178 296.841 8.7921 291.219C3.16644 285.596 0.00397695 277.969 0 270.015L0 60.12C0.00397695 52.1661 3.16644 44.5393 8.7921 38.9165C14.4178 33.2936 22.0461 30.135 30 30.135H74.595V10.485C74.599 7.70283 75.707 5.03596 77.6757 3.07007C79.6444 1.10418 82.3128 -2.83895e-06 85.095 0V0ZM21 116.13V270.015C21 271.197 21.2328 272.367 21.6851 273.459C22.1374 274.551 22.8003 275.543 23.636 276.379C24.4718 277.215 25.4639 277.878 26.5558 278.33C27.6478 278.782 28.8181 279.015 30 279.015H270C271.182 279.015 272.352 278.782 273.444 278.33C274.536 277.878 275.528 277.215 276.364 276.379C277.2 275.543 277.863 274.551 278.315 273.459C278.767 272.367 279 271.197 279 270.015V116.34L21 116.13ZM100.005 219.285V244.275H75V219.285H100.005ZM162.495 219.285V244.275H137.505V219.285H162.495ZM225 219.285V244.275H199.995V219.285H225ZM100.005 159.63V184.62H75V159.63H100.005ZM162.495 159.63V184.62H137.505V159.63H162.495ZM225 159.63V184.62H199.995V159.63H225ZM74.595 51.12H30C28.8181 51.12 27.6478 51.3528 26.5558 51.8051C25.4639 52.2574 24.4718 52.9203 23.636 53.756C22.8003 54.5918 22.1374 55.5839 21.6851 56.6758C21.2328 57.7678 21 58.9381 21 60.12V95.145L279 95.355V60.12C279 58.9381 278.767 57.7678 278.315 56.6758C277.863 55.5839 277.2 54.5918 276.364 53.756C275.528 52.9203 274.536 52.2574 273.444 51.8051C272.352 51.3528 271.182 51.12 270 51.12H229.35V65.055C229.35 67.8398 228.244 70.5105 226.275 72.4796C224.305 74.4488 221.635 75.555 218.85 75.555C216.065 75.555 213.395 74.4488 211.425 72.4796C209.456 70.5105 208.35 67.8398 208.35 65.055V51.12H95.595V64.92C95.595 67.7048 94.4888 70.3755 92.5196 72.3446C90.5505 74.3138 87.8798 75.42 85.095 75.42C82.3102 75.42 79.6395 74.3138 77.6704 72.3446C75.7012 70.3755 74.595 67.7048 74.595 64.92V51.12V51.12Z" fill="#6C757D"/>
</g>
<defs>
<clipPath id="clip0">
<rect width="300" height="300" fill="white"/>
</clipPath>
</defs>
</svg>
