<svg width="300" height="300" viewBox="0 0 300 300" fill="none" xmlns="http://www.w3.org/2000/svg">
<g clip-path="url(#clip0)">
<path d="M87.8904 165.235H41.0155C37.78 165.235 35.1562 167.858 35.1562 171.094V217.969C35.1562 221.205 37.78 223.828 41.0155 223.828H87.8904C91.126 223.828 93.7498 221.205 93.7498 217.969V171.094C93.7498 167.858 91.1266 165.235 87.8904 165.235ZM82.0311 212.11H46.8749V176.953H82.0311V212.11Z" fill="#4378FF"/>
<path d="M294.625 122.907C292.435 122 289.914 122.502 288.239 124.177L228.533 183.883C228.533 183.884 228.532 183.885 228.53 183.886C228.529 183.887 228.529 183.887 228.528 183.889L158.928 253.489C158.927 253.49 158.926 253.49 158.925 253.491C158.924 253.493 158.923 253.493 158.922 253.494L122.419 289.998C120.744 291.673 120.242 294.194 121.149 296.383C122.056 298.573 124.192 300 126.562 300H292.382C295.618 300 298.242 297.377 298.242 294.141V128.321C298.242 125.951 296.814 123.814 294.625 122.907ZM286.523 288.281H140.708L163.068 265.921L168.662 271.515C169.806 272.659 171.305 273.231 172.805 273.231C174.304 273.231 175.804 272.659 176.948 271.515C179.236 269.227 179.236 265.517 176.948 263.228L171.355 257.635L186.27 242.719L191.863 248.312C193.007 249.456 194.507 250.028 196.006 250.028C197.506 250.028 199.005 249.456 200.149 248.312C202.437 246.024 202.437 242.314 200.149 240.025L194.556 234.432L209.472 219.516L215.065 225.11C216.209 226.254 217.709 226.826 219.208 226.826C220.708 226.826 222.207 226.254 223.351 225.11C225.639 222.822 225.639 219.112 223.351 216.823L217.758 211.23L232.673 196.315L238.266 201.908C239.411 203.052 240.91 203.624 242.409 203.624C243.909 203.624 245.408 203.052 246.553 201.908C248.841 199.62 248.841 195.91 246.553 193.621L240.959 188.028L255.875 173.112L261.468 178.705C262.612 179.849 264.111 180.421 265.611 180.421C267.11 180.421 268.61 179.849 269.754 178.705C272.042 176.417 272.042 172.707 269.754 170.419L264.161 164.825L286.523 142.466V288.281Z" fill="#4378FF"/>
<path d="M265.328 193.636C263.138 192.729 260.617 193.231 258.942 194.906L193.148 260.701C191.473 262.376 190.971 264.897 191.878 267.086C192.785 269.276 194.921 270.703 197.291 270.703H263.085C266.321 270.703 268.945 268.08 268.945 264.844V199.05C268.945 196.68 267.517 194.543 265.328 193.636ZM257.226 258.984H211.437L257.226 213.195V258.984Z" fill="#4378FF"/>
<path d="M271.324 87.4576C269.711 85.8451 267.31 85.3142 265.166 86.0988L225.157 100.75C224.357 101.043 223.631 101.507 223.029 102.109L211.779 113.358L138.323 39.9012C137.223 38.8026 135.733 38.185 134.18 38.185C132.626 38.185 131.135 38.8026 130.036 39.9012L41.6168 128.321H20.0057L134.18 14.1464L223.029 99.9695C225.317 102.258 227.691 104.397 229.98 102.109C232.268 99.8208 229.577 96.9175 227.289 94.6288L138.323 1.71631C136.035 -0.571776 132.326 -0.571776 130.036 1.71631L1.71627 130.036C0.0410812 131.712 -0.46048 134.232 0.445963 136.422C1.35299 138.612 3.48932 140.039 5.85943 140.039H11.7188V294.141C11.7188 297.377 14.3426 300 17.5782 300H110.734C113.969 300 116.593 297.377 116.593 294.141C116.593 290.905 113.969 288.281 110.734 288.281H23.4375V140.039H44.0437C45.5976 140.039 47.0877 139.422 48.1869 138.323L134.18 52.3307L203.492 121.644L116.601 208.535V155.86H157.617C160.853 155.86 163.476 153.237 163.476 150C163.476 146.764 160.853 144.141 157.617 144.141H110.742C107.507 144.141 104.883 146.764 104.883 150V217.969C104.883 218.653 105.006 219.306 105.221 219.915L99.9714 225.165C90.696 234.44 90.696 249.533 99.9714 258.808C104.61 263.446 110.7 265.766 116.793 265.765C122.884 265.765 128.978 263.446 133.615 258.809L183.028 209.396C185.316 207.108 185.316 203.397 183.028 201.109C180.74 198.821 177.031 198.821 174.741 201.109L137.304 238.546L120.234 221.476L227.289 114.421L244.359 131.491L174.741 201.109C172.453 203.397 180.74 198.821 183.028 201.109C185.317 203.397 180.739 211.684 183.028 209.396L256.672 135.752C257.274 135.15 257.738 134.423 258.03 133.624L272.682 93.6157C273.467 91.4736 272.937 89.0706 271.324 87.4576ZM129.019 246.832L125.328 250.522C123.048 252.802 120.018 254.057 116.794 254.057C113.569 254.057 110.538 252.802 108.259 250.522C105.978 248.242 104.723 245.211 104.723 241.987C104.723 238.763 105.978 235.732 108.258 233.452L111.948 229.762L129.019 246.832ZM250.245 120.803L237.977 108.535L257.335 101.446L250.245 120.803Z" fill="#4378FF"/>
<path d="M134.179 88.4769C121.902 88.4769 111.914 98.4654 111.914 110.743C111.914 123.02 121.902 133.008 134.179 133.008C146.456 133.008 156.445 123.02 156.445 110.743C156.445 98.4654 146.456 88.4769 134.179 88.4769ZM134.179 121.289C128.364 121.289 123.632 116.559 123.632 110.743C123.632 104.927 128.364 100.196 134.179 100.196C139.995 100.196 144.726 104.927 144.726 110.743C144.726 116.558 139.995 121.289 134.179 121.289Z" fill="#4378FF"/>
</g>
<defs>
<clipPath id="clip0">
<rect width="300" height="300" fill="white"/>
</clipPath>
</defs>
</svg>
