<svg width="100" height="100" viewBox="0 0 100 100" fill="none" xmlns="http://www.w3.org/2000/svg">
<path d="M98.3204 44.428L89.8726 36.3295V9.47592C89.8726 7.76729 88.556 6.3819 86.9318 6.3819H66.5968C64.9728 6.3819 63.656 7.76709 63.656 9.47592V11.1967L53.4537 1.41611C51.4843 -0.472106 48.5146 -0.4719 46.546 1.41591L1.67927 44.4282C0.101923 45.9406 -0.419365 48.2708 0.351337 50.3645C1.12224 52.4582 2.99919 53.8109 5.13337 53.8109H12.2992V96.9058C12.2992 98.6144 13.6158 99.9998 15.24 99.9998H39.8324C41.4564 99.9998 42.7732 98.6146 42.7732 96.9058V70.7399H57.2265V96.906C57.2265 98.6146 58.5431 100 60.1673 100H84.7587C86.3828 100 87.6995 98.6148 87.6993 96.906V53.8111H94.8667C97.0007 53.8111 98.8779 52.4582 99.6488 50.3647C100.419 48.2708 99.8982 45.9406 98.3204 44.428ZM84.7587 47.6231C83.1347 47.6231 81.8179 49.0083 81.8179 50.7171V93.812H63.1083V67.6459C63.1083 65.9373 61.7915 64.5519 60.1675 64.5519H39.8324C38.2084 64.5519 36.8916 65.9371 36.8916 67.6459V93.812H18.1806V50.7171C18.1806 49.0085 16.864 47.6231 15.2398 47.6231H7.07907L50.0001 6.47643L64.6165 20.4888C65.4775 21.314 66.7203 21.5267 67.7853 21.0321C68.8505 20.5369 69.5378 19.4268 69.5378 18.2017V12.5699H83.9913V37.696C83.9913 38.5667 84.3398 39.3966 84.9515 39.9831L92.9208 47.6231H84.7587Z" fill="white"/>
</svg>
