<svg width="300" height="300" viewBox="0 0 300 300" fill="none" xmlns="http://www.w3.org/2000/svg">
<path d="M218.129 218.649H253.765C257.578 218.617 261.112 220.674 263.015 224.034L293.756 279.962C295.449 283.182 295.314 287.079 293.401 290.17C291.489 293.261 288.094 295.072 284.506 294.915H15.4995C11.9118 295.072 8.51617 293.261 6.60363 290.17C4.69168 287.079 4.55633 283.182 6.24913 279.962L36.9898 224.034C38.8924 220.674 42.4274 218.617 46.2402 218.649H218.129Z" fill="#FAFAFA"/>
<path d="M284.505 294.914H75C75 294.914 175.002 284.745 200.002 218.649H253.753C257.57 218.607 261.109 220.67 263.004 224.038L293.754 279.966C295.445 283.187 295.308 287.081 293.396 290.17C291.484 293.26 288.091 295.071 284.505 294.914Z" fill="#A4C2F7"/>
<path d="M264.504 294.914H75C75 294.914 175.002 284.745 200.002 218.649H233.753C237.569 218.607 241.109 220.67 243.004 224.038L273.754 279.966C275.445 283.187 275.308 287.081 273.396 290.17C271.484 293.26 268.09 295.071 264.504 294.914Z" fill="#FAFAFA"/>
<path d="M245.005 101.862C245.005 115.183 239.055 132.063 230.155 149.859C220.506 168.437 209.596 186.31 197.504 203.346C185.604 220.379 173.754 235.733 164.853 246.817C162.153 250.223 159.703 253.173 157.653 255.714C155.781 257.984 153.026 259.308 150.112 259.338C147.199 259.367 144.419 258.099 142.503 255.867L142.353 255.714C140.302 253.172 137.853 250.223 135.152 246.817C126.252 235.733 114.352 220.379 102.502 203.346C90.3917 186.322 79.4808 168.448 69.8507 149.859C60.9507 132.063 55.0004 115.184 55.0004 101.862C54.9394 62.9928 77.7944 27.8728 113.002 12.7342C122.379 8.68142 132.343 6.20877 142.503 5.41276C144.952 5.20958 147.503 5.1077 150.003 5.1077C175.211 5.1077 199.386 15.2956 217.204 33.4276C235.052 51.5721 245.057 76.1992 245.005 101.862Z" fill="#A4C2F7"/>
<path d="M230.005 101.862C230.005 115.183 224.054 132.063 215.154 149.859C205.506 168.438 194.596 186.31 182.504 203.346C170.604 220.379 158.753 235.733 149.853 246.817C147.153 250.223 144.703 253.173 142.653 255.714L142.503 255.867L142.353 255.714C140.302 253.172 137.852 250.223 135.152 246.817C126.252 235.733 114.352 220.379 102.502 203.346C90.3917 186.322 79.4808 168.448 69.8507 149.859C60.9507 132.063 55.0004 115.184 55.0004 101.862C54.9394 62.993 77.7944 27.873 113.002 12.7344C122.379 8.6816 132.343 6.20895 142.503 5.41293C152.662 6.20895 162.626 8.6816 172.003 12.7344C207.219 27.8628 230.078 62.9894 230.005 101.862Z" fill="#FAFAFA"/>
<path d="M195.003 96.6251C194.965 121.881 174.84 142.345 150.003 142.384C147.491 142.387 144.982 142.183 142.502 141.774C120.869 138.011 105.052 118.942 105.052 96.6251C105.052 74.3081 120.869 55.2395 142.502 51.4763C144.982 51.067 147.491 50.8632 150.003 50.8662C174.84 50.9055 194.965 71.3695 195.003 96.6251Z" fill="#D4E1F4"/>
<path d="M180.003 96.625C179.952 118.941 164.13 137.989 142.502 141.774C120.869 138.011 105.052 118.942 105.052 96.625C105.052 74.308 120.869 55.2393 142.502 51.4761C164.13 55.2614 179.952 74.3091 180.003 96.625Z" fill="#F5F5F5"/>
<path d="M15.4992 294.914H30.4995C26.9118 295.072 23.5162 293.26 21.6036 290.169C19.6917 287.078 19.5563 283.182 21.2491 279.961L51.9898 224.033C53.8924 220.674 57.4274 218.616 61.2402 218.649L46.2399 218.65C42.4306 218.62 38.9009 220.677 36.9995 224.034L6.25938 279.962C4.56715 283.181 4.70192 287.075 6.61153 290.165C8.52114 293.256 11.9132 295.068 15.4992 294.914Z" fill="white"/>
<path d="M102.502 203.346C106.187 208.644 109.872 213.754 113.502 218.65H128.502C124.897 213.753 121.212 208.643 117.502 203.346C105.392 186.322 94.4813 168.448 84.8513 149.859C75.9513 132.063 70.001 115.184 70.001 101.862C69.94 62.9928 92.795 27.8728 128.002 12.7342C137.238 8.75173 147.04 6.29874 157.038 5.46876C154.708 5.29598 152.378 5.1077 150.003 5.1077C147.503 5.1077 144.953 5.20958 142.503 5.41276C132.344 6.20877 122.38 8.68142 113.002 12.7342C77.7871 27.8627 54.928 62.9898 55.0006 101.862C55.0006 115.183 60.951 132.063 69.851 149.859C79.4816 168.448 90.392 186.322 102.502 203.346Z" fill="white"/>
<path d="M46.2374 223.734C44.7761 223.73 43.3669 224.288 42.2922 225.295C42.0426 225.532 41.8194 225.796 41.6272 226.083C41.517 226.22 41.4473 226.373 41.3524 226.515L40.8525 227.42L38.8527 231.025L30.9424 245.449L15.0872 274.298L10.5871 282.432L1.88161 277.481L6.38171 269.346L22.217 240.512L30.142 226.088L32.1418 222.483L32.6416 221.584C32.9018 221.142 33.1414 220.689 33.4567 220.272C34.0438 219.427 34.7141 218.645 35.4565 217.938C38.374 215.142 42.2278 213.578 46.2368 213.565V223.734H46.2374Z" fill="white"/>
<path d="M30.2407 236.312C32.6501 237.68 35.6935 236.803 37.0406 234.355L39.4805 229.916L40.7005 227.694L41.3105 226.586C41.4189 226.391 41.539 226.202 41.6702 226.022C42.7501 224.568 44.443 223.719 46.2354 223.734H81.8711C84.6327 223.734 86.871 221.457 86.871 218.65C86.871 215.842 84.6321 213.566 81.8711 213.566H46.236C41.2384 213.551 36.5338 215.961 33.5707 220.054C33.2109 220.559 32.8769 221.084 32.5704 221.625L31.9956 222.718L30.7757 224.94L28.3405 229.379C27.6865 230.554 27.519 231.946 27.8758 233.247C28.2321 234.547 29.0829 235.65 30.2407 236.312Z" fill="#4378FF"/>
<path d="M18.9968 252.765C19.397 253.291 19.895 253.731 20.4616 254.062C21.6265 254.7 22.9847 254.868 24.2667 254.535C26.9175 253.746 28.4591 250.944 27.732 248.235L27.3722 247.33C27.2198 247.023 27.0282 246.737 26.8021 246.481C26.6263 246.212 26.4101 245.971 26.1622 245.769C25.9009 245.557 25.6273 245.361 25.3425 245.184C24.1765 244.543 22.8159 244.375 21.5327 244.711C19.9056 245.15 18.6101 246.402 18.0968 248.032C17.5823 249.663 17.9222 251.447 18.9968 252.765Z" fill="#4378FF"/>
<path d="M98.4204 206.289C110.776 224.003 123.111 239.846 131.286 250.05C132.476 251.535 133.591 252.912 134.671 254.239H110.001C107.24 254.239 105.001 256.516 105.001 259.323C105.001 262.131 107.24 264.408 110.001 264.408H190.003C192.764 264.408 195.003 262.131 195.003 259.323C195.003 256.515 192.764 254.239 190.003 254.239H165.332C166.412 252.912 167.527 251.534 168.723 250.05C176.893 239.881 189.223 224.003 201.583 206.289C213.847 189.067 224.885 170.977 234.614 152.157C244.824 131.768 250.004 114.843 250.004 101.848C250.038 74.8444 239.501 48.9381 220.719 29.8481C219.464 28.5253 217.606 27.9939 215.857 28.458C214.109 28.9222 212.742 30.3092 212.283 32.0866C211.825 33.8639 212.344 35.7544 213.643 37.0319C230.549 54.2177 240.034 77.5387 240.004 101.847C240.004 113.226 235.194 128.6 225.704 147.54C216.195 165.924 205.407 183.595 193.423 200.417C181.233 217.902 169.048 233.567 160.973 243.634C158.288 246.979 155.873 249.938 153.813 252.44C152.851 253.556 151.462 254.196 150.003 254.196C148.543 254.196 147.154 253.556 146.193 252.44C144.133 249.939 141.718 246.979 139.033 243.634C130.958 233.572 118.772 217.907 106.582 200.417C94.5989 183.595 83.811 165.924 74.3016 147.54C64.8016 128.6 60.0015 113.226 60.0015 101.847C59.9968 65.0199 81.6558 31.7624 115.001 17.3913C137.407 7.83788 162.647 7.83788 185.053 17.3913C186.698 18.1009 188.59 17.8637 190.017 16.7692C191.443 15.6753 192.188 13.8902 191.969 12.0867C191.751 10.2831 190.603 8.73518 188.957 8.02616C138.039 -13.8124 79.3519 10.4464 57.8598 62.2148C52.6478 74.7544 49.9747 88.2337 49.9999 101.847C49.9999 114.842 55.1803 131.768 65.3905 152.182C75.1202 170.994 86.1583 189.076 98.4204 206.289Z" fill="#4378FF"/>
<path d="M150.001 55.9511C152.762 55.9511 155 53.6745 155 50.867C155 48.0589 152.762 45.7829 150.001 45.7829C126.147 45.7823 105.614 62.9169 100.959 86.7068C96.3053 110.497 108.826 134.316 130.865 143.599C152.903 152.882 178.321 145.042 191.574 124.874C204.827 104.706 202.223 77.8267 185.356 60.6748C184.101 59.3533 182.242 58.823 180.493 59.2883C178.745 59.7537 177.38 61.1419 176.923 62.9193C176.465 64.6966 176.986 66.5871 178.286 67.864C191.781 81.5851 193.864 103.088 183.262 119.222C172.66 135.357 152.326 141.63 134.696 134.205C117.065 126.78 107.048 107.724 110.769 88.692C114.491 69.6598 130.917 55.9517 150.001 55.9511Z" fill="#4378FF"/>
<path d="M15.497 299.999H284.502C290.026 300.067 295.162 297.122 297.963 292.281C300.622 287.733 300.682 282.084 298.118 277.48L267.367 221.552C264.587 216.583 259.385 213.529 253.762 213.564H218.127C215.365 213.564 213.127 215.841 213.127 218.649C213.127 221.457 215.365 223.733 218.127 223.733H253.762C255.764 223.693 257.631 224.755 258.647 226.509L289.388 282.436C290.225 283.891 290.208 285.696 289.343 287.134C288.322 288.85 286.475 289.878 284.503 289.829H15.497C13.527 289.877 11.6825 288.849 10.6617 287.134C9.79746 285.699 9.77813 283.896 10.6119 282.442L15.112 274.307L17.5519 269.868C18.8967 267.41 18.0271 264.308 15.6095 262.941C13.1919 261.573 10.1414 262.457 8.79666 264.916L6.35677 269.355L1.88187 277.491C-0.681659 282.095 -0.622479 287.743 2.03715 292.291C4.84033 297.128 9.97618 300.069 15.497 299.999Z" fill="#4378FF"/>
<path d="M245.002 238.986H225.002C224.014 238.988 223.049 239.285 222.227 239.841L207.226 250.01C204.929 251.568 204.309 254.726 205.841 257.062C207.374 259.398 210.479 260.028 212.777 258.47L226.502 249.156H245.002C247.764 249.156 250.002 246.88 250.002 244.072C250.002 241.264 247.764 238.986 245.002 238.986Z" fill="#4378FF"/>
<path d="M215.003 274.577C215.003 277.385 217.242 279.661 220.003 279.661H260.004C262.766 279.661 265.004 277.385 265.004 274.577C265.004 271.769 262.766 269.493 260.004 269.493H220.003C217.242 269.493 215.003 271.769 215.003 274.577Z" fill="#4378FF"/>
<path d="M90.0002 259.324C92.2045 259.327 94.1505 257.861 94.7909 255.716C95.4313 253.571 94.6145 251.253 92.7805 250.009L77.7802 239.84C76.9564 239.284 75.9895 238.987 74.9999 238.986H54.9996C52.2381 238.986 49.9997 241.262 49.9997 244.07C49.9997 246.878 52.2387 249.154 54.9996 249.154H73.4998L87.2404 258.469C88.0578 259.024 89.0175 259.321 90.0002 259.324Z" fill="#4378FF"/>
<path d="M39.9997 269.493C37.2381 269.493 34.9997 271.77 34.9997 274.577C34.9997 277.385 37.2387 279.661 39.9997 279.661H80.0007C82.7623 279.661 85.0006 277.385 85.0006 274.577C85.0006 271.769 82.7617 269.493 80.0007 269.493H39.9997Z" fill="#4378FF"/>
</svg>
