<svg width="300" height="300" viewBox="0 0 300 300" fill="none" xmlns="http://www.w3.org/2000/svg">
<g clip-path="url(#clip0)">
<path d="M15.0009 38.0842H285.001C290.524 38.0842 295.001 42.6094 295.001 48.1918V250.34C295.001 255.922 290.524 260.447 285.001 260.447H15.0009C9.47781 260.447 5.00066 255.922 5.00066 250.34V48.1912C5.00066 42.6094 9.47781 38.0842 15.0009 38.0842Z" fill="#A4C2F7"/>
<path d="M280 48.191V250.339C279.983 255.914 275.516 260.43 270 260.447H14.9996C14.4998 260.447 13.9994 260.396 13.4996 260.345C13.3496 260.295 13.1498 260.295 12.9998 260.244C12.5035 260.139 12.0178 259.986 11.5496 259.789H11.4998C10.9602 259.588 10.441 259.334 9.94999 259.031C9.49707 258.757 9.06288 258.453 8.6498 258.121L8.5496 258.02C6.30195 256.116 5.00234 253.304 4.99941 250.338V48.191C4.98007 45.7451 5.87245 43.3815 7.4996 41.571C7.7498 41.3181 7.99941 41.0149 8.29941 40.7626C10.11 39.0345 12.5088 38.0757 14.9996 38.084H270C275.516 38.1006 279.983 42.6157 280 48.191Z" fill="#FAFAFA"/>
<path d="M279.998 52.3354V48.1915C279.982 42.6163 275.514 38.1005 269.998 38.0839H284.998C287.881 38.0845 290.621 39.3578 292.498 41.571L279.998 52.3354Z" fill="#A4C2F7"/>
<path d="M279.998 48.191V52.3348L180.647 138.096L159.647 156.239C154.073 160.99 145.922 160.99 140.347 156.239L119.297 138.096L7.49734 41.571C7.74754 41.3182 7.99715 41.0149 8.29715 40.7626C10.1077 39.0345 12.5065 38.0757 14.9973 38.084H269.997C275.513 38.1006 279.981 42.6157 279.998 48.191Z" fill="#FAFAFA"/>
<path d="M291.448 258.021C289.655 259.585 287.366 260.446 284.998 260.447H269.998C275.514 260.43 279.981 255.915 279.998 250.339V245.64L291.448 258.021Z" fill="#A4C2F7"/>
<path d="M280.001 245.639V250.339C279.985 255.915 275.517 260.43 270.001 260.447H15.0008C14.5009 260.447 14.0006 260.397 13.5008 260.346C13.3508 260.295 13.1509 260.295 13.0009 260.244C12.5047 260.139 12.0189 259.987 11.5508 259.789H11.5009C10.9613 259.588 10.4422 259.335 9.95114 259.031C9.49821 258.757 9.06403 258.453 8.65095 258.122L8.55075 258.02L119.301 138.096L140.35 156.239C145.925 160.99 154.075 160.99 159.651 156.239L180.651 138.096L280.001 245.639Z" fill="#FAFAFA"/>
<path d="M5.41909 253.068C5.5521 253.556 5.71909 254.034 5.91889 254.499C6.00913 254.696 6.12397 254.878 6.22886 255.075C6.44917 255.5 6.69819 255.908 6.97358 256.298C7.09839 256.465 7.23374 256.617 7.3685 256.778C7.68491 257.167 8.0312 257.53 8.40327 257.865C8.45835 257.915 8.49819 257.976 8.55327 258.022L8.65347 258.123C8.76831 258.209 8.89839 258.29 9.0185 258.381C9.2687 258.568 9.51831 258.75 9.78843 258.917C9.84116 258.958 9.89624 258.997 9.95366 259.033C10.0837 259.114 10.2285 259.159 10.3585 259.23C10.6919 259.419 11.0359 259.587 11.3886 259.735L11.5035 259.791H11.5533C12.0214 259.988 12.5066 260.14 13.0035 260.246C13.1535 260.296 13.3533 260.296 13.5033 260.347C14.0031 260.397 14.5035 260.448 15.0033 260.448H29.9992C29.4994 260.448 28.999 260.398 28.4992 260.347C28.3492 260.297 28.1494 260.297 27.9994 260.246C27.5031 260.14 27.0173 259.988 26.5492 259.791H26.4994L26.3845 259.735C26.0318 259.587 25.6878 259.418 25.3544 259.23C25.2244 259.16 25.0796 259.114 24.9496 259.033C24.8927 258.997 24.8377 258.958 24.7843 258.917C24.5142 258.75 24.2845 258.568 24.0144 258.381C23.8943 258.29 23.7642 258.209 23.6494 258.123L23.5492 258.022C23.4941 257.976 23.4543 257.916 23.3992 257.865C23.0265 257.53 22.6808 257.167 22.3644 256.778C22.2296 256.617 22.0943 256.465 21.9695 256.298C21.6935 255.908 21.4445 255.5 21.2248 255.075C21.1199 254.878 21.005 254.696 20.9148 254.499C20.7144 254.034 20.5474 253.556 20.415 253.068C20.3599 252.871 20.2802 252.689 20.2351 252.492C20.0804 251.785 20.0019 251.063 20.0001 250.339V48.1909C20.0031 47.5306 20.0699 46.872 20.2 46.2253C20.2 46.079 20.2802 45.9422 20.3148 45.796C20.4244 45.3168 20.5697 44.8472 20.7496 44.3912C20.8345 44.1892 20.9447 44.0021 21.0396 43.8049C21.1978 43.4572 21.3765 43.1197 21.5746 42.7939C21.8107 42.4368 22.0691 42.0957 22.3498 41.7729C22.4048 41.7125 22.4447 41.6367 22.4998 41.571L22.58 41.4898C23.1929 40.791 23.8978 40.1804 24.6748 39.6758C24.8095 39.5846 24.9595 39.5242 25.0996 39.4431C25.4693 39.2151 25.8531 39.0125 26.2498 38.8367C26.6048 38.7034 26.967 38.5903 27.3349 38.4979C27.5752 38.4274 27.8002 38.3362 28.0451 38.2859C28.6884 38.1514 29.3435 38.0839 30.0004 38.0839H14.9992C14.3423 38.0839 13.6873 38.152 13.0439 38.2859C12.799 38.3362 12.574 38.4274 12.3337 38.4979C11.9664 38.5903 11.6037 38.7034 11.2486 38.8367C10.8525 39.0125 10.4681 39.2151 10.0984 39.4431C9.95835 39.5242 9.80835 39.5846 9.67358 39.6758C8.89663 40.181 8.19175 40.7916 7.57886 41.4898L7.49917 41.571C7.44409 41.6367 7.40425 41.7125 7.34917 41.7729C7.0685 42.1004 6.80952 42.4469 6.57397 42.8087C6.37534 43.1345 6.19721 43.472 6.03901 43.8197C5.94409 44.0169 5.83393 44.204 5.74897 44.406C5.5685 44.8626 5.42319 45.3322 5.31421 45.8108C5.27905 45.957 5.22397 46.0938 5.19936 46.2401C5.07046 46.8821 5.00307 47.5353 4.99956 48.1909V250.339C5.00307 251.063 5.08335 251.785 5.23979 252.492C5.28432 252.689 5.36401 252.866 5.41909 253.068Z" fill="white"/>
<path d="M14.9983 33.0295H79.9981H284.998V43.1371H79.9981H14.9983V33.0295Z" fill="white"/>
<path d="M58.5487 41.6717C59.0004 41.1885 59.3573 40.6223 59.5987 40.004C59.8547 39.3964 59.9907 38.7437 59.9989 38.0834C60.0106 36.0301 58.7924 34.1741 56.9163 33.3864C55.0401 32.5994 52.8792 33.037 51.4489 34.4951L50.8489 35.2531C50.6596 35.535 50.5079 35.8406 50.3989 36.1628C50.2542 36.4494 50.1534 36.7556 50.0989 37.0725C50.0432 37.4065 50.0098 37.7447 49.9987 38.0834C50.018 39.4213 50.536 40.7023 51.4489 41.6717C51.927 42.1283 52.4872 42.489 53.0989 42.733C54.9639 43.4958 57.0979 43.0801 58.5487 41.6717Z" fill="#4378FF"/>
<path d="M285 33.0298H75C72.2385 33.0298 70.0002 35.2928 70.0002 38.0834C70.0002 40.8739 72.2391 43.1369 75 43.1369H285C287.762 43.1369 290 45.3998 290 48.1904V250.338C290 253.129 287.762 255.392 285 255.392H15C12.2385 255.392 10.0002 253.129 10.0002 250.338V48.191C10.0002 45.3998 12.2391 43.1374 15 43.1374H34.9998C37.7613 43.1374 39.9996 40.8745 39.9996 38.0839C39.9996 35.2934 37.7608 33.0304 34.9998 33.0304H15C6.71602 33.0298 0 39.818 0 48.191V250.339C0 258.712 6.71602 265.5 15 265.5H285C293.284 265.5 300 258.712 300 250.339V48.191C300 39.818 293.285 33.0298 285 33.0298Z" fill="#4378FF"/>
<path d="M21.1722 55.0489C20.3197 56.0759 19.9048 57.4025 20.0203 58.7379C20.1357 60.0734 20.7714 61.3076 21.7869 62.1693L137.137 160.105C144.571 166.432 155.432 166.432 162.867 160.105L278.217 62.1693C280.332 60.3749 280.608 57.1869 278.832 55.0489C277.057 52.911 273.903 52.6326 271.788 54.4271L156.437 152.368C152.717 155.529 147.287 155.529 143.567 152.368L28.2175 54.4271C27.2015 53.5654 25.889 53.1461 24.5677 53.2628C23.2464 53.38 22.0248 54.022 21.1722 55.0489Z" fill="#4378FF"/>
<path d="M91.344 160.979L21.3438 236.785C20.077 238.096 19.6117 239.998 20.1285 241.755C20.6453 243.512 22.0627 244.848 23.8322 245.247C25.6024 245.647 27.4469 245.046 28.6539 243.678L98.6542 167.872C99.921 166.561 100.386 164.659 99.8694 162.902C99.3526 161.145 97.9352 159.809 96.1657 159.41C94.3962 159.011 92.551 159.611 91.344 160.979Z" fill="#4378FF"/>
<path d="M201.591 160.732C199.573 162.636 199.463 165.832 201.346 167.873L271.346 243.679C273.245 245.644 276.348 245.717 278.335 243.843C280.322 241.97 280.464 238.836 278.656 236.785L208.656 160.98C206.772 158.94 203.609 158.829 201.591 160.732Z" fill="#4378FF"/>
</g>
<defs>
<clipPath id="clip0">
<rect width="300" height="300" fill="white"/>
</clipPath>
</defs>
</svg>
