<svg width="300" height="300" viewBox="0 0 300 300" fill="none" xmlns="http://www.w3.org/2000/svg">
<g clip-path="url(#clip0)">
<path d="M293.167 252.65L277.918 278.048C275.346 282.359 271.781 285.993 267.519 288.647C265.088 290.179 262.443 291.341 259.67 292.097C234.372 299.046 178.528 300.496 89.0354 210.954C-0.456812 121.412 0.943445 65.617 7.89263 40.3191C8.64842 37.5467 9.81082 34.9014 11.3423 32.47C13.9964 28.2082 17.63 24.6431 21.9416 22.0711L47.3391 6.82224C53.1388 3.3497 60.6428 5.04408 64.3878 10.6721L86.4358 43.6692L104.884 71.3669C108.532 76.9017 107.337 84.3079 102.135 88.4155L96.035 93.1653L79.3865 106.064C74.4867 109.891 73.07 116.699 76.037 122.163C82.7365 134.161 89.036 148.31 120.333 179.657C151.63 211.004 165.829 217.254 177.827 223.953C183.291 226.919 190.099 225.503 193.926 220.604L206.825 203.955L211.574 197.855C215.682 192.652 223.088 191.458 228.623 195.106L257.17 214.154L289.317 235.602C294.945 239.347 296.64 246.851 293.167 252.65Z" fill="#A4C2F7"/>
<path d="M283.17 262.649L267.921 288.046C267.771 288.246 267.671 288.447 267.521 288.646C265.09 290.178 262.444 291.34 259.672 292.096C234.374 299.045 178.529 300.495 89.037 210.953C-0.455231 121.411 0.945613 65.6168 7.8948 40.3188C8.65059 37.5464 9.81299 34.9011 11.3445 32.4697C11.5443 32.3197 11.7446 32.2195 11.9444 32.0696L37.342 16.8207C43.1417 13.3482 50.6457 15.0426 54.3906 20.6706L76.4387 53.6676L94.887 81.3654C98.4902 86.9102 97.3009 94.2835 92.1375 98.414L75.3888 111.413L69.3893 116.063C64.4784 119.883 63.06 126.699 66.0398 132.161C72.7394 144.16 79.0388 158.309 110.336 189.656C141.632 221.003 155.831 227.253 167.83 233.952C173.293 236.931 180.109 235.513 183.929 230.602L188.578 224.603L201.577 207.854C205.708 202.69 213.081 201.501 218.626 205.104L247.173 224.153L279.32 245.601C284.948 249.345 286.643 256.85 283.17 262.649Z" fill="#FAFAFA"/>
<path d="M245 294.666C214.278 292.271 167.672 274.627 104.013 210.953C14.4908 121.461 15.9409 65.6163 22.89 40.3184C23.6458 37.546 24.8082 34.9007 26.3397 32.4693C28.9938 28.2075 32.6275 24.6424 36.939 22.0704L61.272 7.46192C57.1731 4.48211 51.6933 4.23018 47.3385 6.82214L21.9403 22.0698C17.6288 24.6418 13.9951 28.2075 11.3411 32.4687C9.80957 34.9001 8.64718 37.5454 7.89138 40.3178C0.942199 65.6163 -0.50786 121.461 89.0342 210.953C164.077 286.042 215.473 297.135 245 294.666Z" fill="white"/>
<path d="M85.4882 214.503C70.0026 199.004 55.5529 182.503 42.2323 165.108C28.4845 147.285 17.2782 127.639 8.93522 106.733C4.79477 96.0729 1.99834 84.9381 0.610959 73.586C-0.71197 61.9966 0.1153 50.2631 3.05059 38.9743L12.6896 41.619C10.09 51.7003 9.36643 62.1736 10.5546 72.5162C11.8559 83.0311 14.4572 93.3444 18.2988 103.218C26.3132 123.245 37.0665 142.062 50.2513 159.133C63.2825 176.146 77.4164 192.284 92.5627 207.444L85.4882 214.503Z" fill="white"/>
<path d="M0.619822 73.5808C2.0072 84.9329 4.80363 96.0676 8.94408 106.728C17.2871 127.633 28.4933 147.28 42.2411 165.102C43.2043 166.492 44.2243 167.839 45.3006 169.142C47.0278 171.323 50.1886 171.709 52.3898 170.007C54.5383 168.318 54.9138 165.209 53.23 163.058C52.1801 161.788 51.18 160.478 50.2302 159.128C37.0537 142.052 26.3085 123.231 18.303 103.203C14.4625 93.3339 11.8612 83.0258 10.5588 72.5156C9.37236 62.1812 10.0959 51.7161 12.6937 41.6436C14.5153 35.2071 18.7582 29.7261 24.5327 26.3502L49.9256 11.1166C53.4303 9.0045 57.9768 10.0275 60.2395 13.4361L100.736 74.1555C102.947 77.4992 102.221 81.9806 99.0661 84.4548L76.3332 102.138C69.415 107.428 67.4394 117 71.6988 124.596L73.5039 127.876C79.8936 139.595 87.8376 154.173 116.84 183.171C145.843 212.169 160.416 220.113 172.13 226.502L175.415 228.312C183.011 232.571 192.583 230.596 197.873 223.678L215.556 200.945C218.031 197.792 222.51 197.066 225.855 199.275L286.575 239.771C289.984 242.034 291.006 246.58 288.894 250.085L273.66 275.478C270.286 281.246 264.808 285.482 258.377 287.297C227.62 295.741 173.885 288.747 92.5669 207.429L78.8431 193.135C76.9454 191.167 73.8314 191.047 71.7885 192.865C70.7977 193.759 70.2107 195.015 70.1597 196.348C70.1087 197.681 70.5991 198.978 71.5184 199.944L85.4923 214.503C152.871 281.877 203.032 299.996 237.509 299.996C245.444 300.03 253.347 298.997 261.007 296.926C269.92 294.428 277.517 288.574 282.205 280.593L297.474 255.215C302.337 247.135 299.983 236.659 292.129 231.437L231.405 190.941C223.699 185.843 213.369 187.52 207.672 194.795L189.983 217.538C187.709 220.535 183.578 221.405 180.289 219.578L176.924 217.723C165.77 211.643 151.892 204.074 123.929 176.102C95.9668 148.129 88.3825 134.24 82.3028 123.107L80.4578 119.742C78.6058 116.454 79.4589 112.304 82.4574 110.013L105.186 92.3297C112.458 86.632 114.137 76.3051 109.045 68.5967L68.5491 7.87199C63.3295 0.0222983 52.8603 -2.33413 44.7809 2.52227L19.3881 17.7758C11.4095 22.4676 5.55473 30.0636 3.05007 38.9743C0.119476 50.2625 -0.704279 61.9943 0.619822 73.5808Z" fill="#4378FF"/>
<path d="M62.2533 176.662C61.6071 176.618 60.9585 176.699 60.3433 176.902C59.7194 177.088 59.1382 177.396 58.6337 177.808C57.6231 178.679 56.9757 179.897 56.8186 181.222C56.7601 182.547 57.2088 183.846 58.0736 184.852C58.9724 185.845 60.2097 186.468 61.5432 186.596L62.5082 186.557C62.8515 186.521 63.1884 186.436 63.5083 186.306C63.8165 186.229 64.1112 186.106 64.383 185.941C64.6695 185.768 64.9437 185.574 65.2027 185.361C66.1864 184.48 66.8021 183.261 66.9275 181.947C67.0523 179.22 64.9941 176.883 62.2726 176.662H62.2533V176.662Z" fill="#4378FF"/>
<path d="M169.984 50.0183C216.902 50.0705 254.924 88.0927 254.976 135.011C254.976 137.772 257.214 140.01 259.976 140.01C262.737 140.01 264.975 137.772 264.975 135.011C264.917 82.5725 222.422 40.077 169.984 40.0196C167.223 40.0196 164.984 42.2583 164.984 45.019C164.984 47.7797 167.223 50.0183 169.984 50.0183Z" fill="#4378FF"/>
<path d="M169.984 80.0159C200.342 80.0517 224.943 104.653 224.979 135.011C224.979 137.773 227.218 140.011 229.979 140.011C232.74 140.011 234.978 137.773 234.978 135.011C234.936 99.1328 205.862 70.0582 169.984 70.0172C167.223 70.0172 164.984 72.2559 164.984 75.0166C164.984 77.7773 167.223 80.0159 169.984 80.0159Z" fill="#4378FF"/>
<path d="M169.984 110.013C183.783 110.03 194.965 121.212 194.982 135.011C194.982 137.772 197.22 140.011 199.981 140.011C202.742 140.011 204.981 137.772 204.981 135.011C204.958 115.692 189.303 100.036 169.984 100.014C167.223 100.014 164.984 102.253 164.984 105.014C164.984 107.775 167.223 110.013 169.984 110.013Z" fill="#4378FF"/>
</g>
<defs>
<clipPath id="clip0">
<rect width="300" height="300" fill="white"/>
</clipPath>
</defs>
</svg>
