<svg width="286" height="286" fill="none" xmlns="http://www.w3.org/2000/svg"><g clip-path="url(#a)"><path d="M271.333 47.667H14.667C6.6 47.667 0 54.267 0 62.333v161.334c0 8.066 6.6 14.667 14.667 14.667h256.667c8.066 0 14.667-6.6 14.667-14.667V62.333c-.001-8.066-6.601-14.666-14.668-14.666zm-5.504 10.999-114.392 85.801c-2.057 1.565-5.214 2.545-8.438 2.53-3.223.015-6.379-.965-8.437-2.53L20.17 58.666H265.83zm-61.104 91.462 62.333 77.001c.063.077.139.136.206.206H18.736c.066-.074.143-.129.206-.206l62.333-77.001a5.5 5.5 0 0 0-.817-7.737 5.5 5.5 0 0 0-7.734.814L11 219.454V65.541l116.966 87.725c4.397 3.275 9.746 4.716 15.033 4.73 5.28-.011 10.633-1.452 15.033-4.73l116.966-87.725v153.912l-61.723-76.248a5.498 5.498 0 0 0-7.733-.814 5.499 5.499 0 0 0-.817 7.737z" fill="#fff"/></g><defs><clipPath id="a"><path fill="#fff" d="M0 0h286v286H0z"/></clipPath></defs></svg>