<svg width="209" height="288" fill="none" xmlns="http://www.w3.org/2000/svg"><path d="M104.5 0C46.879 0 0 45.322 0 101.03c0 18.822 5.393 37.191 15.599 53.126l82.953 129.239c1.589 2.476 4.388 3.98 7.399 3.98h.069c3.037-.023 5.842-1.574 7.402-4.093l80.838-130.491c9.643-15.599 14.74-33.497 14.74-51.761C209 45.322 162.121 0 104.5 0zm74.814 144.147-73.495 118.636-75.417-117.498c-8.495-13.264-13.101-28.567-13.101-44.255 0-46.423 39.181-84.304 87.199-84.304s87.141 37.88 87.141 84.304c0 15.223-4.302 30.134-12.327 43.117z" fill="#fff"/><path d="M104.498 50.515c-28.81 0-52.25 22.661-52.25 50.515 0 27.676 23.058 50.515 52.25 50.515 29.552 0 52.25-23.143 52.25-50.515 0-27.854-23.439-50.515-52.25-50.515zm0 84.304c-19.308 0-34.95-15.173-34.95-33.789 0-18.57 15.743-33.789 34.95-33.789s34.891 15.22 34.891 33.789c0 18.345-15.277 33.789-34.891 33.789z" fill="#fff"/></svg>