<svg width="512" height="512" viewBox="0 0 512 512" fill="none" xmlns="http://www.w3.org/2000/svg">
<path d="M444.679 126.083H346.271C344.436 126.083 342.676 125.355 341.379 124.057C340.081 122.759 339.352 121 339.352 119.165V20.7568C339.353 19.3886 339.759 18.0512 340.519 16.9136C341.279 15.7761 342.36 14.8895 343.624 14.3659C344.888 13.8424 346.279 13.7054 347.621 13.9722C348.963 14.2391 350.195 14.8978 351.163 15.8651L449.571 114.273C450.538 115.241 451.197 116.473 451.464 117.815C451.73 119.157 451.593 120.548 451.07 121.812C450.546 123.076 449.66 124.157 448.522 124.917C447.385 125.677 446.047 126.083 444.679 126.083V126.083ZM353.19 112.246H427.97L353.19 37.4591V112.246Z" fill="black"/>
<path d="M444.679 498.162H67.321C65.486 498.162 63.7262 497.433 62.4286 496.136C61.1311 494.838 60.4021 493.078 60.4021 491.243V20.7568C60.4021 18.9218 61.1311 17.1619 62.4286 15.8644C63.7262 14.5668 65.486 13.8379 67.321 13.8379H346.271C348.106 13.8383 349.866 14.5675 351.163 15.8651L449.571 114.273C450.868 115.57 451.597 117.33 451.598 119.165V491.243C451.598 493.078 450.869 494.838 449.571 496.136C448.274 497.433 446.514 498.162 444.679 498.162V498.162ZM74.2399 484.324H437.76V122.029L343.407 27.6757H74.2399V484.324ZM247.331 184.078C220.188 184.078 197.265 158.672 197.265 128.595C197.265 95.8132 217.849 72.9116 247.331 72.9116C276.812 72.9116 297.396 95.8132 297.396 128.595C297.396 158.672 274.473 184.078 247.331 184.078ZM247.331 86.7495C225.661 86.7495 211.103 103.569 211.103 128.595C211.103 151.172 227.709 170.24 247.331 170.24C266.953 170.24 283.558 151.172 283.558 128.595C283.558 103.569 269.001 86.7495 247.331 86.7495V86.7495ZM329.472 271.408H165.231C163.396 271.408 161.636 270.68 160.338 269.382C159.041 268.084 158.312 266.325 158.312 264.49V248.327C158.651 232.808 165.041 218.036 176.119 207.163C187.196 196.29 202.085 190.175 217.607 190.125H222.921C224.339 190.124 225.722 190.559 226.885 191.37C232.888 195.559 240.031 197.805 247.351 197.805C254.671 197.805 261.815 195.559 267.817 191.37C268.98 190.559 270.364 190.124 271.782 190.125H277.013C292.52 190.178 307.396 196.272 318.482 207.114C329.569 217.957 335.993 232.693 336.391 248.196V264.49C336.391 266.325 335.662 268.084 334.364 269.382C333.067 270.68 331.307 271.408 329.472 271.408ZM172.15 257.571H322.553V248.389C322.364 236.472 317.47 225.113 308.939 216.789C300.407 208.465 288.931 203.852 277.013 203.956H273.878C265.938 208.966 256.74 211.625 247.351 211.625C237.962 211.625 228.765 208.966 220.824 203.956H217.607C205.725 203.978 194.323 208.641 185.831 216.951C177.339 225.261 172.429 236.56 172.15 248.438V257.571ZM392.649 313.655H119.351C117.516 313.655 115.756 312.926 114.459 311.629C113.161 310.331 112.432 308.572 112.432 306.736C112.432 304.901 113.161 303.142 114.459 301.844C115.756 300.547 117.516 299.818 119.351 299.818H392.649C394.484 299.818 396.243 300.547 397.541 301.844C398.839 303.142 399.568 304.901 399.568 306.736C399.568 308.572 398.839 310.331 397.541 311.629C396.243 312.926 394.484 313.655 392.649 313.655ZM392.649 376.486H119.351C117.516 376.486 115.756 375.757 114.459 374.46C113.161 373.162 112.432 371.402 112.432 369.567C112.432 367.732 113.161 365.972 114.459 364.675C115.756 363.377 117.516 362.648 119.351 362.648H392.649C394.484 362.648 396.243 363.377 397.541 364.675C398.839 365.972 399.568 367.732 399.568 369.567C399.568 371.402 398.839 373.162 397.541 374.46C396.243 375.757 394.484 376.486 392.649 376.486ZM392.649 439.31H119.351C117.516 439.31 115.756 438.581 114.459 437.283C113.161 435.986 112.432 434.226 112.432 432.391C112.432 430.556 113.161 428.796 114.459 427.499C115.756 426.201 117.516 425.472 119.351 425.472H392.649C394.484 425.472 396.243 426.201 397.541 427.499C398.839 428.796 399.568 430.556 399.568 432.391C399.568 434.226 398.839 435.986 397.541 437.283C396.243 438.581 394.484 439.31 392.649 439.31Z" fill="black"/>
</svg>
