<svg width="100" height="100" viewBox="0 0 100 100" fill="none" xmlns="http://www.w3.org/2000/svg">
<path d="M4.16669 36.7643H85.7754L78.3046 44.6747C76.6775 46.3975 76.6775 49.1901 78.3046 50.913C79.1191 51.7755 80.1837 52.2056 81.2504 52.2056C82.3171 52.2056 83.3817 51.7755 84.1963 50.913L98.7797 35.4717C100.407 33.7489 100.407 30.9562 98.7797 29.2334L84.1963 13.7921C82.5692 12.0693 79.9317 12.0693 78.3046 13.7921C76.6775 15.5149 76.6775 18.3076 78.3046 20.0304L85.7754 27.9407H4.16669C1.86668 27.9407 0 29.9172 0 32.3525C0 34.7878 1.86668 36.7643 4.16669 36.7643Z" fill="white"/>
<path d="M95.8333 63.2352H14.2246L21.6954 55.3248C23.3225 53.602 23.3225 50.8093 21.6954 49.0865C20.0704 47.3637 17.4287 47.3637 15.8037 49.0865L1.22032 64.5278C-0.406773 66.2506 -0.406773 69.0433 1.22032 70.7661L15.8037 86.2074C16.6162 87.0699 17.6829 87.5 18.7496 87.5C19.8162 87.5 20.8829 87.0699 21.6954 86.2074C23.3225 84.4846 23.3225 81.6919 21.6954 79.9691L14.2246 72.0588H95.8333C98.1333 72.0588 100 70.0823 100 67.647C100 65.2116 98.1333 63.2352 95.8333 63.2352Z" fill="white"/>
</svg>
