<svg width="300" height="300" viewBox="0 0 300 300" fill="none" xmlns="http://www.w3.org/2000/svg">
<g clip-path="url(#clip0)">
<path d="M295.597 79.8434C287.665 79.8434 281.213 73.3916 281.213 65.4598C281.213 63.0276 279.242 61.0565 276.81 61.0565C274.378 61.0565 272.406 63.0276 272.406 65.4598C272.406 73.391 265.955 79.8434 258.023 79.8434C255.591 79.8434 253.62 81.8145 253.62 84.2467C253.62 86.6789 255.591 88.65 258.023 88.65C265.954 88.65 272.406 95.1024 272.406 103.034C272.406 105.466 274.378 107.437 276.81 107.437C279.242 107.437 281.213 105.466 281.213 103.034C281.213 95.1024 287.665 88.65 295.597 88.65C298.029 88.65 300 86.6789 300 84.2467C300 81.8145 298.029 79.8434 295.597 79.8434ZM276.81 89.4522C275.362 87.4547 273.602 85.6951 271.605 84.2467C273.602 82.7983 275.362 81.0381 276.81 79.0412C278.259 81.0387 280.019 82.7983 282.016 84.2467C280.018 85.6951 278.259 87.4553 276.81 89.4522Z" fill="#4378FF"/>
<path d="M41.9764 79.8434C34.0458 79.8434 27.5928 73.3916 27.5928 65.4598C27.5928 63.0276 25.6211 61.0565 23.1895 61.0565C20.7579 61.0565 18.7862 63.0276 18.7862 65.4598C18.7862 73.391 12.3333 79.8434 4.40259 79.8434C1.97095 79.8434 -0.000732422 81.8145 -0.000732422 84.2467C-0.000732422 86.6789 1.97095 88.65 4.40259 88.65C12.3333 88.65 18.7862 95.1024 18.7862 103.034C18.7862 105.466 20.7579 107.437 23.1895 107.437C25.6211 107.437 27.5928 105.466 27.5928 103.034C27.5928 95.1024 34.0458 88.65 41.9764 88.65C44.4081 88.65 46.3797 86.6789 46.3797 84.2467C46.3797 81.8145 44.4081 79.8434 41.9764 79.8434ZM23.1895 89.4522C21.7411 87.4547 19.9815 85.6951 17.984 84.2467C19.9821 82.7983 21.7417 81.0381 23.1895 79.0412C24.6379 81.0387 26.3975 82.7983 28.395 84.2467C26.3981 85.6951 24.6379 87.4553 23.1895 89.4522Z" fill="#4378FF"/>
<path d="M173.483 23.4832C162.962 23.4832 154.403 14.9244 154.403 4.40273C154.403 1.97109 152.432 0 150 0C147.568 0 145.597 1.97109 145.597 4.40332C145.597 14.9244 137.037 23.4838 126.516 23.4838C124.085 23.4838 122.113 25.4549 122.113 27.8871C122.113 30.3193 124.085 32.2904 126.516 32.2904C137.037 32.2904 145.597 40.8498 145.597 51.3709C145.597 53.8031 147.568 55.7742 150 55.7742C152.432 55.7742 154.403 53.8031 154.403 51.3709C154.403 40.8498 162.963 32.2904 173.484 32.2904C175.916 32.2904 177.887 30.3193 177.887 27.8871C177.887 25.4549 175.915 23.4832 173.483 23.4832ZM150 36.3439C147.823 32.9549 144.932 30.0633 141.542 27.8865C144.932 25.7098 147.823 22.8182 150 19.4291C152.177 22.8182 155.068 25.7098 158.457 27.8865C155.068 30.0633 152.177 32.9549 150 36.3439Z" fill="#4378FF"/>
<path d="M241.673 148.535L224.545 100.005C223.264 96.3732 219.815 93.9334 215.964 93.9334H82.8614C79.0101 93.9334 75.5618 96.3732 74.2804 100.004L57.1522 148.535C56.1573 151.353 58.3194 154.403 61.3042 154.403H237.521C238.95 154.403 240.29 153.71 241.115 152.544C241.941 151.377 242.149 149.882 241.673 148.535ZM67.5274 145.597L82.5843 102.935C82.6241 102.822 82.7407 102.739 82.8608 102.739H215.964C216.084 102.739 216.201 102.822 216.241 102.936L231.298 145.597H67.5274Z" fill="#4378FF"/>
<path d="M233.953 206.654C218.316 206.654 206.067 214.777 206.067 225.147C206.067 235.517 218.316 243.64 233.953 243.64C249.591 243.64 261.84 235.517 261.84 225.147C261.84 214.777 249.591 206.654 233.953 206.654ZM233.953 234.834C223.033 234.834 214.873 229.72 214.873 225.147C214.873 220.574 223.032 215.46 233.953 215.46C244.874 215.46 253.034 220.574 253.034 225.147C253.034 229.72 244.874 234.834 233.953 234.834Z" fill="#4378FF"/>
<path d="M64.8726 206.654C49.235 206.654 36.986 214.777 36.986 225.147C36.986 235.517 49.235 243.64 64.8726 243.64C80.5101 243.64 92.7591 235.517 92.7591 225.147C92.7591 214.777 80.5101 206.654 64.8726 206.654ZM64.8726 234.834C53.9524 234.834 45.7921 229.72 45.7921 225.147C45.7921 220.574 53.9518 215.46 64.8726 215.46C75.7933 215.46 83.953 220.574 83.953 225.147C83.953 229.72 75.7933 234.834 64.8726 234.834Z" fill="#4378FF"/>
<path d="M290.314 140.9H266.83C264.81 140.9 263.049 142.276 262.559 144.236L259.466 156.608L237.832 95.315C234.566 86.0613 225.778 79.8433 215.965 79.8433H82.8618C73.0479 79.8433 64.26 86.0613 60.994 95.3156L39.3612 156.608L36.268 144.236C35.7776 142.275 34.0163 140.9 31.9965 140.9H8.51276C6.08112 140.9 4.10944 142.871 4.10944 145.304V164.091C4.10944 166.523 6.08112 168.494 8.51276 168.494H32.8333L17.8221 189.509C14.9967 193.465 13.5032 198.127 13.5032 202.988V258.024C13.5032 265.65 17.2046 272.427 22.904 276.656C22.9022 276.707 22.8964 276.758 22.8964 276.81V290.9C22.8964 295.918 26.9786 300 31.996 300H60.176C65.194 300 69.2756 295.918 69.2756 290.9V281.214H229.549V290.9C229.549 295.918 233.632 300 238.649 300H266.829C271.847 300 275.929 295.918 275.929 290.9V276.81C275.929 276.758 275.923 276.707 275.921 276.656C281.621 272.427 285.322 265.65 285.322 258.024V202.988C285.322 198.126 283.828 193.464 281.002 189.509L265.991 168.494H290.312C292.745 168.494 294.716 166.523 294.716 164.091V145.304C294.716 142.871 292.746 140.9 290.314 140.9ZM12.9161 159.687V149.706H28.5583L31.0532 159.687H12.9161ZM60.4702 290.9C60.4702 291.062 60.3389 291.194 60.1766 291.194H31.9965C31.8348 291.194 31.703 291.062 31.703 290.9V281.214H36.6934H60.4702V290.9ZM267.123 290.9C267.123 291.062 266.991 291.194 266.83 291.194H238.65C238.488 291.194 238.356 291.062 238.356 290.9V281.214H262.133H267.123V290.9ZM262.133 272.407H36.6928C30.2973 272.407 24.8657 268.211 23.0012 262.427H275.824C273.96 268.211 268.529 272.407 262.133 272.407ZM187.28 224.854V234.834H111.546V224.854H187.28ZM112.238 216.047C114.103 210.263 119.534 206.067 125.93 206.067H172.897C179.292 206.067 184.724 210.263 186.589 216.047H112.238ZM187.28 243.64V253.62H111.546V243.64H187.28ZM273.838 194.627C275.591 197.081 276.517 199.972 276.517 202.987V253.621H196.087V220.45C196.087 207.663 185.683 197.261 172.897 197.261H125.93C113.143 197.261 102.74 207.664 102.74 220.45V253.621H22.3092V202.987C22.3092 199.972 23.2356 197.081 24.9881 194.627L43.6555 168.493H224.56C226.992 168.493 220.156 166.522 220.156 164.09C220.156 161.658 226.992 159.687 224.56 159.687H47.613L69.2979 98.2459C71.3241 92.5066 76.7745 88.6494 82.8618 88.6494H215.965C222.052 88.6494 227.502 92.506 229.529 98.2459L251.213 159.687H224.56C222.127 159.687 220.156 161.658 220.156 164.09C220.156 166.522 222.127 168.493 224.56 168.493H255.171L273.838 194.627ZM285.91 159.687H267.773L270.267 149.706H285.91V159.687Z" fill="#4378FF"/>
<path d="M78.9625 192.564H50.7824C48.3507 192.564 46.379 194.535 46.379 196.967C46.379 199.399 48.3507 201.37 50.7824 201.37H78.9625C81.3941 201.37 83.3658 199.399 83.3658 196.967C83.3658 194.535 81.3941 192.564 78.9625 192.564Z" fill="#4378FF"/>
<path d="M248.043 192.564H219.863C217.431 192.564 215.46 194.535 215.46 196.967C215.46 199.399 217.431 201.37 219.863 201.37H248.043C250.475 201.37 252.446 199.399 252.446 196.967C252.446 194.535 250.475 192.564 248.043 192.564Z" fill="#4378FF"/>
</g>
<defs>
<clipPath id="clip0">
<rect width="300" height="300" fill="white"/>
</clipPath>
</defs>
</svg>
