<svg width="300" height="300" viewBox="0 0 300 300" fill="none" xmlns="http://www.w3.org/2000/svg">
<path d="M82.2601 138.254C79.9726 135.966 76.2636 135.966 73.9761 138.254C69.1198 143.111 61.2173 143.111 56.3605 138.254C54.0729 135.966 50.364 135.966 48.0765 138.254C45.789 140.541 45.789 144.25 48.0765 146.538C52.7886 151.249 58.9784 153.606 65.1683 153.606C71.3581 153.606 77.5474 151.25 82.2595 146.538C84.547 144.251 84.547 140.542 82.2601 138.254Z" fill="#2F69FF"/>
<path d="M279.714 15.5625C259.077 -5.07426 225.542 -5.13402 204.823 15.3703C198.355 12.1593 191.489 9.40485 184.249 7.13727C160.498 -0.302381 141.067 -0.0264042 139.382 0.0105099C107.606 0.0316037 79.8886 13.3646 67.0314 34.8175C65.3345 37.6488 63.9206 40.5832 62.7862 43.6025C56.7306 49.3687 29.4024 77.6115 29.4024 117.658C29.4024 144.331 16.5728 158.257 8.92569 164.184C6.06808 166.399 4.52062 169.877 4.78722 173.488C5.05382 177.1 7.09581 180.315 10.2499 182.087C13.1316 183.707 16.3724 185.261 19.506 186.765C22.2769 188.094 26.2144 189.983 28.1345 191.212V201.646C28.1345 203.073 27.862 204.467 27.3247 205.791L25.8722 209.366C23.8829 214.261 24.6153 219.865 27.7724 224.083V225.368C27.7724 229.169 29.4458 232.687 32.2331 235.073V241.951C32.2331 256.69 44.2237 268.681 58.963 268.681H76.2587C79.4937 268.681 82.1163 266.058 82.1163 262.823C82.1163 259.588 79.4937 256.966 76.2587 256.966H58.963C50.6843 256.966 43.9478 250.23 43.9478 241.951V231.844C43.9478 229.497 42.5468 227.378 40.3882 226.457L40.1351 226.349C39.7413 226.181 39.487 225.796 39.487 225.368V222.061C39.487 220.748 39.0452 219.472 38.2331 218.439L37.1995 217.126C36.453 216.178 36.272 214.893 36.7261 213.775L38.1786 210.199C39.2872 207.469 39.8497 204.592 39.8497 201.646V189.175C39.8497 183.531 34.0999 180.772 24.5737 176.202C22.0724 175.002 19.5001 173.767 17.2249 172.55C26.6456 164.862 41.1183 148.09 41.1183 117.657C41.1183 95.6367 50.9204 77.2875 59.4241 65.5089C59.8888 75.7154 62.9761 86.3888 68.6896 97.0757C83.723 125.193 109.903 136.979 130.938 146.447C150.953 155.457 162.281 161.128 162.372 172.917C162.438 181.574 160.447 187.944 156.454 191.848C151.843 196.356 145.724 196.241 145.687 196.24C143.721 196.103 141.878 196.961 140.681 198.524C139.484 200.088 139.211 202.152 139.856 204.012C140.028 204.508 144.178 216.274 153.677 227.739C165.551 242.068 180.539 249.629 197.25 249.798L212.99 295.944C213.82 298.38 216.096 299.913 218.533 299.913C219.159 299.913 219.798 299.811 220.424 299.597C223.486 298.553 225.121 295.224 224.077 292.162L208.576 246.717C237.799 231.057 258.345 206.764 268.139 176.17C275.947 151.783 276.32 124.419 269.723 98.5013C273.338 96.3041 276.687 93.6808 279.714 90.6544C300.417 69.9521 300.417 36.266 279.714 15.5625ZM256.983 172.6C247.791 201.314 228.056 223.921 199.873 238.046C185.622 238.686 173.193 232.797 162.917 220.527C158.774 215.58 155.775 210.489 153.812 206.634C157.154 205.589 160.992 203.726 164.448 200.416C170.936 194.202 174.179 184.92 174.087 172.829C173.934 152.955 155.385 144.606 135.748 135.766C115.322 126.571 92.171 116.15 79.0208 91.5533C70.8517 76.2726 68.9286 61.7431 73.2827 49.0043C73.3009 48.9556 73.3179 48.9064 73.3349 48.8578C74.2894 46.098 75.5345 43.4203 77.0814 40.8392C87.8433 22.8808 111.745 11.7246 139.459 11.7246C139.515 11.7246 139.571 11.724 139.628 11.7222C139.81 11.7164 158.272 11.2752 180.748 18.3152C210.658 27.6849 232.691 45.1429 246.234 70.2047C263.349 101.881 267.368 140.159 256.983 172.6ZM266.222 86.7931C263.609 79.1777 260.384 71.7498 256.539 64.6359C246.924 46.8421 233.032 32.2324 215.609 21.3826C231.851 7.76598 256.166 8.58043 271.431 23.8459C287.566 39.9814 287.566 66.2361 271.431 82.3716C269.807 83.9964 268.066 85.4724 266.222 86.7931Z" fill="#2F69FF"/>
<path d="M160.443 288.608L136.671 242.612L136.05 220.907C135.531 202.73 121.472 187.911 103.347 186.436C90.0192 185.35 77.2229 192.741 71.4989 204.825L71.2094 205.435C63.6215 221.452 69.0959 240.828 83.943 250.506L102.212 262.415L122.17 296.983C123.255 298.862 125.223 299.913 127.248 299.912C128.241 299.912 129.249 299.659 130.171 299.126C132.972 297.509 133.933 293.927 132.315 291.125L114.585 260.416L121.649 256.337L128.713 252.258L152.848 292.405C154.465 295.206 157.64 298.6 160.443 296.983C163.245 295.368 162.061 291.409 160.443 288.608ZM106.771 251.403L90.3414 240.693C80.3793 234.199 76.7061 221.198 81.7973 210.451L82.0867 209.84C85.5004 202.635 92.8586 198.047 100.748 198.047C101.296 198.047 101.846 198.069 102.398 198.114C114.559 199.103 123.992 209.047 124.34 221.243L124.904 240.934L106.771 251.403Z" fill="#2F69FF"/>
<path d="M115.799 34.3377C114.527 31.3641 111.085 29.9824 108.11 31.2545C97.7792 35.6707 90.3284 43.1151 87.1297 52.217C83.9247 61.3371 85.1282 71.5782 90.6102 81.8315C91.6655 83.8055 93.6887 84.9282 95.7811 84.9282C96.7133 84.9282 97.6584 84.7049 98.5374 84.235C101.39 82.7098 102.467 79.1608 100.941 76.3073C96.9934 68.9227 96.0653 62.124 98.1823 56.0994C100.279 50.1328 105.44 45.1342 112.715 42.0252C115.69 40.7549 117.07 37.3131 115.799 34.3377Z" fill="#2F69FF"/>
</svg>
