<svg width="300" height="300" viewBox="0 0 300 300" fill="none" xmlns="http://www.w3.org/2000/svg">
<path d="M299.95 184.65C299.9 184.55 299.95 184.4 299.95 184.3L277.35 21.55C276.503 15.5833 273.535 10.1213 268.99 6.16385C264.445 2.2064 258.627 0.0182685 252.6 0H47.4C41.3735 0.0182685 35.5551 2.2064 31.01 6.16385C26.4649 10.1213 23.4972 15.5833 22.65 21.55L0.05 184.3C0.05 184.4 0.1 184.55 0.05 184.65C-4.65661e-08 184.75 0 184.85 0 185V195C0.0118705 198.975 1.59604 202.783 4.40651 205.593C7.21699 208.404 11.0254 209.988 15 210H135V243.45C129.802 245.922 125.293 249.639 121.874 254.27C118.456 258.901 116.232 264.304 115.4 270H70C66.0218 270 62.2064 271.58 59.3934 274.393C56.5804 277.206 55 281.022 55 285C55 288.978 56.5804 292.794 59.3934 295.607C62.2064 298.42 66.0218 300 70 300H230C233.978 300 237.794 298.42 240.607 295.607C243.42 292.794 245 288.978 245 285C245 281.022 243.42 277.206 240.607 274.393C237.794 271.58 233.978 270 230 270H184.6C183.768 264.304 181.544 258.901 178.126 254.27C174.707 249.639 170.198 245.922 165 243.45V210H285C288.975 209.988 292.783 208.404 295.593 205.593C298.404 202.783 299.988 198.975 300 195V185C300 184.85 299.95 184.75 299.95 184.65ZM289.25 180H234.35L229.5 145H284.4L289.25 180ZM278.15 100L283 135H228.1L223.25 100H278.15ZM276.75 90H221.85L217 55H271.9L276.75 90ZM252.6 10C256.218 10.0148 259.71 11.3316 262.437 13.7095C265.163 16.0875 266.943 19.3676 267.45 22.95L270.5 45H215.6L210.75 10H252.6ZM155 10H200.65L205.5 45H155V10ZM155 55H206.9L211.75 90H155V55ZM155 100H213.15L218 135H155V100ZM155 145H219.4L224.25 180H155V145ZM99.35 10H145V45H94.5L99.35 10ZM145 55V90H88.25L93.1 55H145ZM82 135L86.85 100H145V135H82ZM145 145V180H75.75L80.6 145H145ZM32.55 22.95C33.0569 19.3676 34.8365 16.0875 37.5633 13.7095C40.2902 11.3316 43.782 10.0148 47.4 10H89.25L84.4 45H29.5L32.55 22.95ZM28.1 55H83L78.15 90H23.25L28.1 55ZM21.85 100H76.75L71.9 135H17L21.85 100ZM15.6 145H70.5L65.65 180H10.75L15.6 145ZM230 280C231.326 280 232.598 280.527 233.536 281.464C234.473 282.402 235 283.674 235 285C235 286.326 234.473 287.598 233.536 288.536C232.598 289.473 231.326 290 230 290H70C68.6739 290 67.4021 289.473 66.4645 288.536C65.5268 287.598 65 286.326 65 285C65 283.674 65.5268 282.402 66.4645 281.464C67.4021 280.527 68.6739 280 70 280H230ZM174.5 270H125.5C126.648 264.349 129.714 259.268 134.179 255.618C138.644 251.969 144.233 249.975 150 249.975C155.767 249.975 161.356 251.969 165.821 255.618C170.286 259.268 173.352 264.349 174.5 270V270ZM145 240.4V210H155V240.4C151.688 239.867 148.312 239.867 145 240.4V240.4ZM290 195C290 196.326 289.473 197.598 288.536 198.536C287.598 199.473 286.326 200 285 200H15C13.6739 200 12.4021 199.473 11.4645 198.536C10.5268 197.598 10 196.326 10 195V190H290V195Z" fill="#4378FF"/>
</svg>
