<svg width="300" height="300" viewBox="0 0 300 300" fill="none" xmlns="http://www.w3.org/2000/svg">
<path d="M293.75 212.5H275V75.0001C275 61.2124 263.788 49.9999 250 49.9999H49.9998C36.2121 49.9999 24.9996 61.2118 24.9996 75.0001V212.5H6.24961C2.79551 212.5 0 215.295 0 218.75V225C0 238.788 11.2119 250 25.0002 250H275C288.788 250 300 238.788 300 225V218.75C300 215.295 297.204 212.5 293.75 212.5ZM37.5 75.0001C37.5 68.1095 43.1092 62.5003 49.9998 62.5003H250C256.89 62.5003 262.499 68.1095 262.499 75.0001V212.5H181.25H118.75H37.5V75.0001ZM275 237.5H25.0002C18.1096 237.5 12.5004 231.891 12.5004 225H31.2504H116.162L120.581 229.419C121.753 230.591 123.34 231.25 125 231.25H175C176.66 231.25 178.247 230.591 179.419 229.419L183.838 225H268.75H287.5C287.5 231.891 281.891 237.5 275 237.5Z" fill="#3B82F6"/>
</svg>
