<svg width="430" height="430" fill="none" xmlns="http://www.w3.org/2000/svg"><path d="M87.62 285.835c42.413 50.698 93.467 90.615 151.739 118.86 22.186 10.514 51.857 22.988 84.913 25.127 2.049.089 4.01.178 6.059.178 22.186 0 40.006-7.663 54.53-23.434.089-.089.267-.267.356-.445 5.168-6.237 11.049-11.85 17.197-17.82 4.187-4.01 8.464-8.197 12.563-12.474 18.978-19.781 18.978-44.907-.178-64.064l-53.55-53.549c-9.088-9.445-19.959-14.434-31.363-14.434-11.405 0-22.365 4.989-31.72 14.345l-31.898 31.898c-2.941-1.693-5.97-3.208-8.821-4.633-3.564-1.782-6.861-3.475-9.801-5.347-29.047-18.443-55.421-42.501-80.637-73.418-12.741-16.128-21.295-29.671-27.264-43.482 8.375-7.573 16.216-15.503 23.789-23.255 2.673-2.762 5.436-5.524 8.198-8.286 9.623-9.623 14.79-20.761 14.79-32.077 0-11.315-5.078-22.453-14.79-32.076L145.18 40.897c-3.119-3.118-6.059-6.148-9.089-9.266-5.88-6.06-12.028-12.296-18.087-17.91C108.827 4.723 98.045 0 86.64 0 75.326 0 64.454 4.722 54.92 13.81L21.598 47.135C9.479 59.252 2.618 73.954 1.193 90.972c-1.693 21.295 2.227 43.926 12.385 71.28 15.593 42.323 39.115 81.617 74.043 123.583zM22.934 92.843c1.07-11.85 5.614-21.74 14.167-30.294l33.146-33.146c5.168-4.99 10.87-7.573 16.395-7.573 5.435 0 10.959 2.584 16.038 7.751 5.969 5.525 11.583 11.316 17.642 17.464 3.029 3.119 6.147 6.237 9.266 9.445l26.552 26.552c5.524 5.524 8.376 11.137 8.376 16.662 0 5.524-2.852 11.137-8.376 16.662-2.762 2.762-5.524 5.613-8.286 8.375-8.287 8.375-16.038 16.305-24.592 23.879l-.446.445c-7.395 7.396-6.237 14.435-4.455 19.781.089.267.179.445.268.713 6.86 16.483 16.394 32.165 31.274 50.876 26.73 32.967 54.886 58.539 85.893 78.231 3.831 2.494 7.93 4.455 11.761 6.415 3.564 1.782 6.861 3.475 9.801 5.346.357.178.624.356.981.534 2.94 1.515 5.791 2.228 8.642 2.228 7.128 0 11.762-4.544 13.276-6.059l33.324-33.324c5.168-5.167 10.781-7.93 16.306-7.93 6.771 0 12.295 4.188 15.77 7.93l53.728 53.639c10.692 10.692 10.603 22.275-.267 33.591-3.742 4.01-7.663 7.841-11.851 11.85-6.237 6.059-12.741 12.296-18.622 19.335-10.246 11.049-22.453 16.217-38.224 16.217-1.515 0-3.118-.089-4.633-.179-29.225-1.871-56.401-13.276-76.805-22.988-55.421-26.819-104.07-64.865-144.432-113.157-33.235-40.007-55.6-77.251-70.39-117.168-9.177-24.503-12.652-44.194-11.227-62.103z" fill="#fff"/></svg>